<?xml version="1.0" encoding="utf-8"?>
<!-- Designed by Vexels.com - 2019 All Rights Reserved - https://vexels.com/terms-and-conditions/  -->
<svg version="1.1" id="Layer_1" xmlns="http://www.w3.org/2000/svg" xmlns:xlink="http://www.w3.org/1999/xlink" x="0px" y="0px"
	 viewBox="0 0 1200 1200" enable-background="new 0 0 1200 1200" xml:space="preserve">
<g>
	<g>
		<path opacity="0.37" fill="#5D5D5D" d="M141.464,1004.762l173.961,98.682c9.39,5.326,20.886,5.333,30.282,0.017l746.966-422.594
			c20.853-11.798,20.773-41.865-0.143-53.551l-190.34-106.348c-9.528-5.324-21.166-5.191-30.57,0.347l-730.586,430.26
			C120.669,963.568,120.909,993.101,141.464,1004.762z"/>
		<g>
			<g>
				
					<line fill="none" stroke="#7C5600" stroke-width="0.5" stroke-miterlimit="10" x1="158.917" y1="641.937" x2="398.911" y2="781.53"/>
				
					<line fill="none" stroke="#7C5600" stroke-width="0.5" stroke-miterlimit="10" x1="148.421" y1="727.394" x2="389.54" y2="867.063"/>
				
					<line fill="none" stroke="#7C5600" stroke-width="0.5" stroke-miterlimit="10" x1="77.471" y1="805.792" x2="317.585" y2="945.331"/>
				<g>
					<g>
						<path fill="#FBD257" d="M370.617,1005.657c-4.932-34.193,19.288-65.343,52.977-71.934c14.782-2.892,10.39-18.339-4.151-15.493
							c-43.912,8.591-78.883,48.299-72.331,93.726C348.613,1022.361,372.192,1016.573,370.617,1005.657L370.617,1005.657z"/>
					</g>
				</g>
				<g>
					<g>
						<g enable-background="new    ">
							<g>
								<g>
									<path fill="#FBD257" d="M159.156,714.253l-5.578,3.241c1.641-0.953,2.662-2.974,2.67-5.838l5.578-3.241
										C161.818,711.278,160.797,713.299,159.156,714.253z"/>
								</g>
							</g>
							<g>
								<g>
									<path fill="#A36D00" d="M138.095,651.243l5.578-3.241c1.662-0.966,3.96-0.837,6.485,0.621l-5.578,3.241
										C142.056,650.406,139.758,650.277,138.095,651.243z"/>
								</g>
							</g>
							<g>
								<g>
									<polygon fill="#A36D00" points="156.369,669.173 161.947,665.932 161.826,708.414 156.249,711.656 									"/>
								</g>
							</g>
							<g>
								<g>
									<polygon fill="#A36D00" points="144.58,651.864 150.158,648.623 152.851,650.178 147.274,653.419 									"/>
								</g>
							</g>
							<g>
								<g>
									<path fill="#A36D00" d="M147.274,653.419l5.578-3.241c5.017,2.897,9.112,9.989,9.096,15.754l-5.578,3.241
										C156.386,663.408,152.291,656.316,147.274,653.419z"/>
								</g>
							</g>
							<g>
								<g>
									<path fill="#FBD257" d="M147.274,653.419c5.017,2.897,9.112,9.989,9.096,15.754l-0.12,42.483
										c-0.016,5.765-4.138,8.114-9.155,5.217l-2.693-1.555c-5.017-2.897-9.112-9.989-9.096-15.754l0.12-42.483
										c0.016-5.765,4.138-8.114,9.155-5.217L147.274,653.419z"/>
								</g>
							</g>
						</g>
					</g>
					<g>
						<g>
							<g>
								<g>
									<g enable-background="new    ">
										<g>
											<g>
												<path fill="#FBD257" d="M147.092,635.642l26.938,17.742c0.19,0.125,0.296,0.368,0.275,0.705l-26.938-17.742
													C147.389,636.01,147.283,635.767,147.092,635.642z"/>
											</g>
										</g>
										<g>
											<g>
												<path fill="#FBD257" d="M172.129,656l-26.938-17.742c0.208,0.137,0.516,0.134,0.87-0.041
													c0.682-0.337,1.263-1.172,1.306-1.871l26.938,17.742c-0.043,0.699-0.624,1.534-1.306,1.871
													C172.646,656.134,172.337,656.137,172.129,656z"/>
											</g>
										</g>
										<g>
											<g>
												<path fill="#FBD257" d="M147.368,636.346c-0.043,0.699-0.625,1.534-1.306,1.871c-0.677,0.335-1.188,0.04-1.145-0.659
													c0.043-0.705,0.625-1.54,1.301-1.874C146.9,635.347,147.411,635.642,147.368,636.346z"/>
											</g>
										</g>
									</g>
								</g>
								<g>
									<g enable-background="new    ">
										<g>
											<g>
												<path fill="#FBD257" d="M148.268,636.936l-0.091,32.256c-0.001,0.257-0.186,0.521-0.549,0.719
													c-0.658,0.365-1.661,0.379-2.256,0.035c-0.009-0.005-0.017-0.01-0.026-0.015c-0.273-0.166-0.406-0.381-0.406-0.601
													l0.091-32.256c-0.001,0.22,0.133,0.435,0.406,0.601c0.008,0.005,0.017,0.01,0.026,0.015
													c0.595,0.343,1.598,0.33,2.256-0.035C148.082,637.457,148.267,637.193,148.268,636.936z"/>
											</g>
										</g>
										<g>
											<g>
												<path fill="#FBD257" d="M147.837,636.321c0.009,0.005,0.017,0.01,0.026,0.015c0.591,0.359,0.529,0.951-0.144,1.319
													c-0.658,0.365-1.661,0.379-2.256,0.035c-0.009-0.005-0.017-0.01-0.026-0.015c-0.591-0.359-0.529-0.951,0.139-1.321
													C146.24,635.992,147.242,635.978,147.837,636.321z"/>
											</g>
										</g>
									</g>
								</g>
							</g>
							<g>
								<path fill="#A36D00" d="M256.393,755.3L77.712,891.011c0,0,235.462,136.704,236.138,134.676
									c0.676-2.028,164.936-140.601,164.936-140.601L256.393,755.3z"/>
							</g>
							<g>
								<g>
									<g enable-background="new    ">
										<g>
											<g>
												<path fill="#42430A" d="M410.666,919.373l39.539,23.6c-8.926-5.328-21.157-4.816-34.696,2.791l-39.539-23.6
													C389.509,914.557,401.74,914.045,410.666,919.373z"/>
											</g>
										</g>
										<g>
											<g>
												<path fill="#42430A" d="M379.74,1067.821l-39.539-23.6c-9.302-5.552-15.01-17.441-14.862-34.232
													c0.292-32.987,22.966-72.281,50.631-87.825l39.539,23.6c-27.665,15.544-50.339,54.839-50.631,87.825
													C364.729,1050.38,370.437,1062.269,379.74,1067.821z"/>
											</g>
										</g>
										<g>
											<g>
												<path fill="#4B4C06" d="M415.509,945.764c27.665-15.544,49.866-1.463,49.574,31.523
													c-0.291,32.904-22.965,72.198-50.63,87.742c-27.665,15.544-49.866,1.463-49.575-31.44
													C365.17,1000.603,387.844,961.309,415.509,945.764z"/>
											</g>
										</g>
										<g>
											<g>
												<path fill="#4B4C06" d="M415.509,945.764c27.665-15.544,49.866-1.463,49.574,31.523
													c-0.291,32.904-22.965,72.198-50.63,87.742c-27.665,15.544-49.866,1.463-49.575-31.44
													C365.17,1000.603,387.844,961.309,415.509,945.764z"/>
											</g>
										</g>
										<g>
											<g>
												<path fill="#F2EDE0" d="M415.25,975.044c14.082-7.912,25.383-0.745,25.234,16.046
													c-0.148,16.748-11.69,36.75-25.771,44.662c-14.082,7.912-25.383,0.745-25.234-16.004
													C389.627,1002.957,401.168,982.956,415.25,975.044z"/>
											</g>
										</g>
									</g>
								</g>
								<g>
									<g enable-background="new    ">
										<g>
											<g>
												<path fill="#42430A" d="M1011.855,578.332l39.539,23.6c-8.926-5.328-21.156-4.816-34.696,2.791l-39.539-23.6
													C990.698,573.516,1002.929,573.004,1011.855,578.332z"/>
											</g>
										</g>
										<g>
											<g>
												<path fill="#42430A" d="M980.929,726.78l-39.539-23.6c-9.302-5.552-15.01-17.441-14.862-34.232
													c0.292-32.987,22.966-72.281,50.631-87.825l39.539,23.6c-27.665,15.544-50.339,54.839-50.631,87.825
													C965.918,709.339,971.626,721.228,980.929,726.78z"/>
											</g>
										</g>
										<g>
											<g>
												<path fill="#4B4C06" d="M1016.698,604.723c27.665-15.544,49.866-1.463,49.574,31.523
													c-0.291,32.904-22.965,72.198-50.63,87.742c-27.665,15.544-49.866,1.463-49.575-31.44
													C966.359,659.562,989.033,620.267,1016.698,604.723z"/>
											</g>
										</g>
										<g>
											<g>
												<path fill="#4B4C06" d="M1016.698,604.723c27.665-15.544,49.866-1.463,49.574,31.523
													c-0.291,32.904-22.965,72.198-50.63,87.742c-27.665,15.544-49.866,1.463-49.575-31.44
													C966.359,659.562,989.033,620.267,1016.698,604.723z"/>
											</g>
										</g>
										<g>
											<g>
												<path fill="#F2EDE0" d="M1016.438,634.003c14.082-7.912,25.383-0.745,25.234,16.046
													c-0.148,16.748-11.69,36.75-25.771,44.662c-14.082,7.912-25.383,0.745-25.234-16.004
													C990.815,661.916,1002.357,641.915,1016.438,634.003z"/>
											</g>
										</g>
									</g>
								</g>
								<g>
									<path fill="none" stroke="#BC923F" stroke-width="3" stroke-miterlimit="10" d="M1122.432,544.128"/>
								</g>
								<g>
									<g enable-background="new    ">
										<g>
											
												<rect x="780.537" y="350.738" transform="matrix(0.488 0.8728 -0.8728 0.488 1041.7343 -318.9036)" fill="#A36D00" width="24.332" height="755.583"/>
										</g>
										<g>
											<g>
												<polygon fill="#687029" points="517.142,907.966 231.291,741.847 230.469,452.21 516.321,618.328 												"/>
											</g>
										</g>
										<g>
											<path fill="#FBD257" d="M241.367,576.503c1.028,2.264,3.074,182.125,5.379,182.125s228.232,140.628,228.232,140.628
												l4.611-185.967L241.367,576.503z"/>
										</g>
										<g>
											<g>
												<path fill="#FFFFFF" d="M405.826,743.667c2.346,1.179,4.689,2.363,7.035,3.543c-0.025-1.626-0.013-3.25,0.029-4.872
													c-2.265-1.308-4.53-2.615-6.795-3.922C405.927,740.158,405.853,741.911,405.826,743.667z"/>
											</g>
											<g>
												<path fill="#FFFFFF" d="M412.923,741.631c-0.133-0.148-0.269-0.262-0.401-0.42c0.133,0.16,0.264,0.338,0.398,0.486
													C412.921,741.675,412.923,741.653,412.923,741.631z"/>
											</g>
											<g>
												<path fill="#FFFFFF" d="M383.572,726.193l-7.443-4.298c0.282,2.363,0.475,4.729,0.561,7.1
													c2.317,1.172,4.639,2.333,6.956,3.503C383.684,730.393,383.67,728.29,383.572,726.193z"/>
											</g>
											<g>
												<path fill="#56560D" d="M443.138,823.248v0.001c-0.58-10.797-1.159-21.592-1.739-32.389v0.004
													c-0.194-3.547-0.937-7.245-2.212-10.992c-0.799-2.348-1.649-4.23-1.657-4.248c-1.077-2.336-1.569-3.402-3.194-6.272
													c-5.65-9.977-13.448-16.942-16.01-19.231c-0.308-0.265-0.629-0.47-0.959-0.632c0.013,0.006,0.026,0.002,0.038,0.008
													c-1.515-0.762-3.029-1.527-4.544-2.289c-2.346-1.179-4.689-2.364-7.035-3.543c-7.396-3.718-14.79-7.44-22.18-11.169
													c-2.317-1.17-4.639-2.331-6.956-3.503c-0.266-0.134-0.531-0.267-0.797-0.401c-0.618-0.313-1.232-0.475-1.836-0.527
													c0.064,0.005,0.126-0.014,0.191-0.005c-9.074-1.16-13.866,1.353-16.441,2.703l-1.868,1.086
													c-2.26,1.349-5.539,3.721-7.917,8.723c-2.365,4.976-2.26,9.913-2.203,12.565c0.001,0.004,0.003,0.009,0.003,0.009
													l-0.003-0.006c0,1.083,0.116,2.159,0.174,3.239c0.058,1.079,0.116,2.159,0.174,3.238
													c0.026,0.973,0.122,2.267,0.174,3.238c0.058,1.08,0.116,2.159,0.175,3.239c0.347,6.478,0.695,12.955,1.043,19.433
													l0.002,0.004c0.421,7.227,2.937,13.724,5.688,18.916c2.086,0.169,5.356,0.537,9.359,1.354
													c5.455,1.115,10.232,2.674,12.594,3.505c-0.199-0.07-0.467-0.022-0.697-0.042c0.38,0.033,0.774,0.042,1.068,0.213
													c0.321,0.187,8.25,4.801,42.597,24.649c-0.231-0.134-0.574-0.151-0.846-0.242c0.546,0.182,1.104,0.356,1.476,0.709
													c2.25,2.23,6.733,6.689,8.95,12.623c1.188-0.444,2.224-0.96,3.42-1.573l1.868-1.085
													c0.733-0.426,1.417-0.914,2.063-1.446c2.471-1.902,4.367-4.162,5.604-6.771
													C443.258,830.953,443.194,826.86,443.138,823.248z"/>
											</g>
											<g>
												<path fill="#6E6E6E" d="M425.215,727.636c-0.242-2.472-0.698-5.058-1.426-7.657c-1.216,0.555-2.111,1.018-2.809,1.451
													C422.194,722.801,423.944,725.045,425.215,727.636z"/>
											</g>
											<g>
												<path fill="#56560D" d="M398.549,734.84c2.206,1.393,3.153,2.383,3.487,2.22c0.394-0.183,0.778-0.23,1.166-0.315
													c0.965,0.557,1.928,1.114,2.892,1.67c2.265,1.308,4.53,2.615,6.795,3.922c0.829,0.479,1.659,0.958,2.489,1.437
													c-0.418-0.241-0.836-0.547-1.253-0.9c1.791,1.515,3.615,2.039,5.226,1.281c0.241-0.12,0.559-0.286,0.794-0.417
													l1.868-1.086c4.409-2.603,5.964-7.868,3.962-13.414c-0.2-0.555-0.5-1.071-0.762-1.604
													c-1.271-2.59-3.021-4.835-4.236-6.206c0.698-0.434,1.593-0.896,2.809-1.451c-12.529-7.234-30.31-17.5-42.84-24.733
													c-0.151,0.357-0.376,0.719-0.542,1.079c-4.007-1.418-8.548-1.952-12.63,0.252l-1.868,1.086
													c-6.211,3.738-5.538,11.345-3.077,15.552c-0.063-0.104-0.086-0.263-0.133-0.388c0.151,0.397,0.348,0.734,0.654,0.911
													c1.526,0.881,3.052,1.762,4.578,2.643c0.373,0.549,0.785,1.102,1.115,1.632c0.332,0.547,1.281,0.653,3.489,1.808
													l3.596,2.076l7.443,4.298L398.549,734.84z M412.923,741.631c0.344,0.381,0.687,0.777,1.036,1.084
													c-0.348-0.307-0.695-0.638-1.039-1.018c-0.134-0.149-0.265-0.326-0.398-0.486
													C412.654,741.369,412.79,741.483,412.923,741.631z M362.509,712.273c-0.011-0.069-0.002-0.192,0.045-0.308
													c0.02,0.177,0.002,0.402,0.04,0.556C362.571,712.431,362.526,712.372,362.509,712.273z"/>
											</g>
											<g>
												<path fill="#42430A" d="M417.324,833.887c0.273,0.091,0.615,0.108,0.846,0.242
													c-34.347-19.848-42.276-24.463-42.597-24.649c-0.294-0.17-0.688-0.179-1.068-0.213c0.229,0.02,0.498-0.028,0.697,0.042
													c-2.362-0.831-7.14-2.39-12.594-3.505c-4.003-0.818-7.273-1.186-9.359-1.354c-0.994-0.081-1.742-0.12-2.129-0.134
													c-10.293-0.378-14.714,1.484-18.356,3.425l-0.005,0.001l-2.154,1.252l-2.155,1.253l-2.154,1.252l-2.155,1.252
													l-2.155,1.252l-2.155,1.252l-2.155,1.252l-2.155,1.253l-2.155,1.252l-2.154,1.252l0.002,0
													c-1.414,0.882-4.031,2.518-5.858,5.507c-1.918,3.141-2.051,5.349-2.192,7.687l-0.006,2.161
													c0.056,1.859,0.228,7.516,6.031,14.666c5.866,7.229,13.382,11.786,17.42,14.234c-0.315-0.182-0.499-0.486-0.73-0.747
													c0.231,0.262,0.416,0.567,0.733,0.749l1.453,0.839l1.453,0.839l1.453,0.839l1.453,0.839l1.454,0.839l1.453,0.839
													l1.454,0.839l1.453,0.839l1.454,0.839l1.453,0.839c-0.408-0.236-0.68-0.6-0.946-0.968
													c0.266,0.369,0.539,0.733,0.949,0.969c13.55,7.784,26.366,10.575,32.799,11.545c7.582,1.143,12.667,0.75,14.045,0.602
													c6.43-0.69,8.893-1.976,11.492-3.338l-0.002,0.002c7.183-4.174,14.367-8.349,21.549-12.523c0,0,0.003-0.004,0.005-0.005
													c7.572-4.557,7.884-10.582,8.017-13.157l0.006-2.161c-0.035-2.38-0.539-4.605-1.307-6.66
													c-2.217-5.933-6.7-10.393-8.95-12.623C418.427,834.243,417.87,834.069,417.324,833.887z"/>
											</g>
										</g>
										<g>
											<path fill="#BC923F" d="M241.564,571.992l-82.346,69.443c-0.393,4.045-8.477,80.69-11.108,85.25
												c-2.367,4.099-71.106,78.489-70.95,78.397l0.242,85.219l44.06-30.637c0.434-26.001,8.492-56.702,49.349-71.967
												c19.079-7.128,40.628-5.845,44.087,21.075l27.248-31.885L241.564,571.992z M229.907,605.721l-0.654,67.435
												c-0.009,0.951-0.513,1.829-1.33,2.317l-58.812,35.124c-0.912,0.544-2.068-0.093-2.006-1.153
												c0.497-8.456,3.665-37.08,5.62-52.803c1.143-9.172,3.802-14.115,7.341-17.654l46.289-37.257
												C230.401,598.192,229.966,603.168,229.907,605.721z"/>
										</g>
										<g>
											<g>
												<path fill="#FFFFFF" d="M283.559,685.895c2.346,1.179,4.689,2.363,7.035,3.543c-0.025-1.626-0.013-3.25,0.029-4.872
													c-2.265-1.308-4.53-2.615-6.795-3.922C283.66,682.386,283.586,684.139,283.559,685.895z"/>
											</g>
											<g>
												<path fill="#FFFFFF" d="M290.656,683.859c-0.133-0.148-0.269-0.262-0.401-0.42c0.133,0.16,0.264,0.338,0.398,0.486
													C290.654,683.903,290.656,683.881,290.656,683.859z"/>
											</g>
											<g>
												<path fill="#FFFFFF" d="M261.305,668.421l-7.443-4.298c0.282,2.363,0.475,4.729,0.561,7.1
													c2.317,1.172,4.639,2.333,6.956,3.503C261.417,672.621,261.403,670.518,261.305,668.421z"/>
											</g>
											<g>
												<path fill="#56560D" d="M320.871,765.477L320.871,765.477c-0.58-10.796-1.159-21.591-1.739-32.388v0.003
													c-0.194-3.546-0.937-7.243-2.212-10.99c-0.799-2.348-1.649-4.23-1.657-4.248c-1.077-2.336-1.569-3.402-3.194-6.272
													c-5.65-9.977-13.448-16.942-16.01-19.231c-0.308-0.265-0.629-0.47-0.959-0.632c0.013,0.006,0.026,0.002,0.038,0.008
													c-1.515-0.762-3.029-1.527-4.544-2.289c-2.346-1.179-4.689-2.364-7.035-3.543c-7.396-3.718-14.79-7.44-22.18-11.169
													c-2.317-1.17-4.639-2.331-6.956-3.503c-0.266-0.134-0.531-0.267-0.797-0.401c-0.618-0.313-1.232-0.475-1.836-0.527
													c0.064,0.006,0.126-0.014,0.191-0.005c-9.074-1.16-13.866,1.353-16.441,2.703l-1.868,1.086
													c-2.26,1.349-5.538,3.722-7.917,8.723c-2.365,4.976-2.26,9.913-2.203,12.565l0.003,0.013l-0.002-0.007
													c-0.001,1.08,0.115,2.156,0.174,3.235c0.058,1.079,0.116,2.159,0.174,3.238c0.026,0.973,0.122,2.267,0.174,3.238
													c0.058,1.08,0.116,2.159,0.175,3.239c0.347,6.478,0.695,12.955,1.043,19.433c0,0,0.002,0.003,0.002,0.004
													c0.421,7.227,2.937,13.724,5.688,18.916c2.086,0.169,5.356,0.537,9.359,1.354c5.455,1.115,10.232,2.674,12.594,3.505
													c-0.199-0.07-0.467-0.022-0.697-0.042c0.38,0.033,0.774,0.042,1.068,0.213c0.321,0.187,8.25,4.801,42.597,24.649
													c-0.231-0.134-0.574-0.151-0.846-0.242c0.546,0.182,1.104,0.356,1.476,0.709c2.25,2.23,6.733,6.689,8.95,12.622
													c1.188-0.444,2.224-0.96,3.42-1.573l1.868-1.085c0.733-0.426,1.417-0.914,2.063-1.447
													c2.471-1.902,4.367-4.162,5.604-6.771C320.991,773.181,320.927,769.088,320.871,765.477z"/>
											</g>
											<g>
												<path fill="#6E6E6E" d="M302.948,669.864c-0.242-2.472-0.698-5.058-1.426-7.657c-1.216,0.555-2.111,1.018-2.809,1.451
													C299.927,665.029,301.677,667.273,302.948,669.864z"/>
											</g>
											<g>
												<path fill="#56560D" d="M276.282,677.068c2.206,1.393,3.153,2.383,3.487,2.22c0.394-0.183,0.778-0.23,1.166-0.315
													c0.965,0.557,1.928,1.114,2.892,1.67c2.265,1.308,4.53,2.615,6.795,3.922c0.829,0.479,1.659,0.958,2.489,1.437
													c-0.418-0.241-0.836-0.547-1.253-0.9c1.791,1.515,3.615,2.039,5.226,1.281c0.241-0.12,0.559-0.286,0.794-0.416
													l1.868-1.086c4.409-2.603,5.964-7.868,3.962-13.414c-0.2-0.555-0.5-1.071-0.762-1.604
													c-1.271-2.59-3.021-4.835-4.236-6.206c0.698-0.434,1.593-0.896,2.809-1.451c-12.529-7.234-30.31-17.5-42.84-24.733
													c-0.151,0.357-0.376,0.719-0.542,1.079c-4.007-1.418-8.548-1.952-12.63,0.252l-1.868,1.086
													c-6.211,3.738-5.538,11.345-3.077,15.553c-0.063-0.104-0.086-0.263-0.133-0.388c0.151,0.397,0.348,0.734,0.654,0.911
													c1.526,0.881,3.052,1.762,4.578,2.643c0.373,0.549,0.785,1.102,1.115,1.632c0.332,0.547,1.281,0.653,3.489,1.808
													l3.596,2.076l7.443,4.298L276.282,677.068z M290.656,683.859c0.344,0.381,0.687,0.777,1.036,1.085
													c-0.348-0.307-0.695-0.638-1.039-1.018c-0.134-0.148-0.265-0.326-0.398-0.486
													C290.387,683.597,290.523,683.711,290.656,683.859z M240.242,654.501c-0.011-0.069-0.002-0.192,0.045-0.308
													c0.02,0.177,0.002,0.402,0.04,0.556C240.304,654.659,240.259,654.6,240.242,654.501z"/>
											</g>
											<g>
												<path fill="#42430A" d="M295.057,776.115c0.273,0.091,0.615,0.108,0.846,0.242
													c-34.347-19.848-42.276-24.463-42.597-24.649c-0.294-0.17-0.688-0.179-1.068-0.213c0.229,0.02,0.498-0.028,0.697,0.042
													c-2.362-0.831-7.14-2.39-12.594-3.505c-4.003-0.818-7.273-1.186-9.359-1.354c-0.994-0.081-1.742-0.12-2.129-0.134
													c-10.293-0.378-14.714,1.484-18.356,3.425l-0.003,0.001l-2.156,1.253l-2.155,1.253l-2.154,1.252l-2.155,1.252
													l-2.155,1.252l-2.155,1.252l-2.155,1.252l-2.155,1.253l-2.155,1.252l-2.154,1.252l0.003-0.001
													c-1.414,0.882-4.032,2.518-5.858,5.508c-1.918,3.141-2.051,5.349-2.192,7.687l-0.006,2.161
													c0.057,1.859,0.228,7.516,6.031,14.666c5.866,7.229,13.382,11.786,17.42,14.234c-0.315-0.182-0.499-0.486-0.73-0.747
													c0.231,0.262,0.416,0.567,0.733,0.749l1.453,0.839l1.453,0.839l1.453,0.839l1.453,0.839l1.454,0.839l1.453,0.839
													l1.454,0.839l1.453,0.839l1.454,0.839l1.453,0.839c-0.408-0.236-0.68-0.6-0.946-0.968
													c0.266,0.369,0.539,0.733,0.949,0.969c13.55,7.784,26.366,10.575,32.799,11.545c7.582,1.143,12.667,0.75,14.045,0.602
													c6.43-0.69,8.893-1.976,11.492-3.338l-0.002,0.002c7.183-4.174,14.367-8.349,21.549-12.523
													c0.002-0.001,0.003-0.004,0.003-0.004c7.574-4.558,7.886-10.583,8.019-13.158l0.006-2.161
													c-0.035-2.38-0.539-4.605-1.307-6.66c-2.217-5.933-6.7-10.393-8.95-12.622
													C296.16,776.471,295.603,776.297,295.057,776.115z"/>
											</g>
										</g>
										<g>
											<g opacity="0.52">
												<g>
													<path fill="#FFFFFF" d="M225.749,601.731l-46.289,37.257c-3.539,3.539-6.199,8.482-7.341,17.654
														c-1.956,15.723-5.123,44.347-5.62,52.803c-0.061,1.06,1.094,1.697,2.006,1.153l58.812-35.124
														c0.817-0.488,1.321-1.366,1.33-2.317l0.654-67.435C229.359,603.168,229.794,598.192,225.749,601.731z"/>
												</g>
											</g>
										</g>
										<g>
											<g>
												<polygon fill="#B9C153" points="518.771,621.516 231.488,453.991 860.25,93.207 1146.102,259.326 												"/>
											</g>
										</g>
										<g>
											<g>
												<polygon fill="#687029" points="1143.652,258.534 1144.473,548.171 517.142,910.361 516.321,620.723 												"/>
											</g>
										</g>
									</g>
								</g>
								<g>
									<g enable-background="new    ">
										<g>
											<g>
												<path fill="#FFFFFF" d="M327.478,785.07c-2.01,2.035,0.503,9.937,5.377,16.909
													c7.646,10.937,15.578,16.507,19.626,18.854c-0.68-0.393-1.643-0.182-2.571,0.677c-10.3-5.944-20.84-18.577-23.442-28.13
													C325.385,789.41,325.839,786.587,327.478,785.07z"/>
											</g>
										</g>
										<g>
											<g>
												<path fill="#FFFFFF" d="M352.482,820.833c2.322,1.28,4.042,2.166,6.688,2.796c0.109,0.026,2.687,0.626,3.729-0.315
													c-2.304,2.132-6.955,1.68-12.989-1.805C350.839,820.651,351.802,820.44,352.482,820.833z"/>
											</g>
										</g>
										<g>
											<g>
												<path fill="#FFFFFF" d="M326.831,785.67l0.648-0.599c-1.64,1.517-2.094,4.34-1.01,8.31
													c2.602,9.553,13.142,22.186,23.442,28.13l-0.648,0.599c-10.3-5.944-20.84-18.577-23.442-28.13
													C324.737,790.009,325.191,787.187,326.831,785.67z"/>
											</g>
										</g>
										<g>
											<g>
												<path fill="#FFFFFF" d="M362.899,823.314l-0.648,0.599c-2.304,2.132-6.955,1.68-12.989-1.805l0.648-0.599
													C355.944,824.995,360.595,825.447,362.899,823.314z"/>
											</g>
										</g>
										<g>
											<g>
												<path fill="#FFFFFF" d="M315.699,772.344c1.202-1.017,4.018-3.4,10.044-2.822c5.911,0.567,11.477,3.659,14.152,5.145
													c-0.68-0.393-1.643-0.182-2.571,0.677C327.277,769.545,319.535,768.794,315.699,772.344z"/>
											</g>
										</g>
										<g>
											<g>
												<path fill="#FFFFFF" d="M315.051,772.944l0.648-0.599c3.837-3.55,11.579-2.799,21.625,2.999l-0.648,0.599
													C326.63,770.145,318.888,769.393,315.051,772.944z"/>
											</g>
										</g>
										<g>
											<g>
												<path fill="#FFFFFF" d="M362.252,823.914c0.354-0.358,1.944-2.531-1.496-10.178c-1.825-4.057-4.903-8.594-9.149-13.484
													c-7.442-8.572-17.553-15.21-23.018-15.111c-0.444,0.008-1.263,0.087-1.758,0.53c-1.64,1.517-2.094,4.34-1.01,8.31
													c2.602,9.553,13.142,22.186,23.442,28.13c-1.431,1.324-2.239,3.688-1.806,5.28
													c-12.024-6.942-24.301-21.657-27.342-32.81c-3.041-11.153,4.3-14.541,16.325-7.599
													c12.052,6.958,24.301,21.657,27.342,32.81c3.041,11.153-4.273,14.557-16.324,7.599c-0.434-1.591,0.375-3.955,1.806-5.28
													C355.297,825.594,359.947,826.046,362.252,823.914z"/>
											</g>
										</g>
										<g>
											<g>
												<path fill="#FFFFFF" d="M334.87,781.222c15.471,8.932,31.258,27.859,35.162,42.176
													c3.904,14.317-5.533,18.681-21.004,9.748c-15.471-8.932-31.231-27.843-35.134-42.16
													C309.989,776.67,319.398,772.29,334.87,781.222z M347.457,827.389c12.052,6.958,19.365,3.554,16.324-7.599
													c-3.041-11.153-15.29-25.852-27.342-32.81c-12.024-6.942-19.365-3.554-16.325,7.599
													C323.156,805.732,335.433,820.447,347.457,827.389"/>
											</g>
										</g>
										<g>
											<g>
												<path fill="#FFFFFF" d="M339.894,774.667c2.625,1.594,9.598,5.83,16.805,13.166c6.496,6.614,11.571,13.107,15.084,19.3
													c10.167,17.924,6.193,25.801,2.92,28.9c2.729-2.525,3.483-7.225,1.683-13.833
													c-4.343-15.917-21.867-36.925-39.062-46.856C338.251,774.484,339.214,774.274,339.894,774.667z"/>
											</g>
										</g>
										<g>
											<g>
												<path fill="#FFFFFF" d="M374.054,836.632c-1.522,1.288-5.566,4.709-15.258,1.732
													c-6.332-1.945-14.244-6.776-21.163-12.921c-8.145-7.233-14.578-14.949-19.666-23.589
													c-2.609-4.429-6.916-13.017-6.453-20.761c0.299-5.003,2.735-7.371,3.536-8.15c3.837-3.55,11.579-2.799,21.625,2.999
													c-1.431,1.324-2.239,3.688-1.806,5.28c-15.471-8.932-24.88-4.552-20.977,9.764c3.904,14.317,19.663,33.228,35.134,42.16
													c15.471,8.932,24.908,4.568,21.004-9.748c-3.904-14.317-19.691-33.244-35.162-42.176
													c-0.434-1.591,0.375-3.955,1.806-5.28c17.195,9.93,34.718,30.938,39.062,46.856
													C377.538,829.407,376.784,834.107,374.054,836.632z"/>
											</g>
										</g>
										<g>
											<g>
												<path fill="#FFFFFF" d="M374.702,836.033l-0.648,0.599c2.729-2.525,3.483-7.225,1.683-13.833
													c-4.343-15.917-21.867-36.925-39.062-46.856l0.648-0.599c17.195,9.93,34.718,30.938,39.062,46.856
													C378.185,828.808,377.431,833.508,374.702,836.033z"/>
											</g>
										</g>
									</g>
								</g>
								<g>
									<g enable-background="new    ">
										<g>
											<g>
												<path fill="#BC923F" d="M146.419,760.756l0.094-33.061c-0.006,2.311,1.517,4.63,4.572,6.395l-0.094,33.061
													C147.936,765.387,146.413,763.067,146.419,760.756z"/>
											</g>
										</g>
										<g>
											<g>
												<path fill="#BC923F" d="M398.772,841.893l-0.094,33.061c-0.006,2.274-1.503,4.542-4.475,6.268l0.094-33.061
													C397.269,846.434,398.765,844.167,398.772,841.893z"/>
											</g>
										</g>
										<g>
											<g>
												<polygon fill="#BC923F" points="394.297,848.161 394.203,881.223 382.318,888.13 382.411,855.068 												"/>
											</g>
										</g>
										<g>
											<g>
												<polygon fill="#BC923F" points="360.627,855.068 360.533,888.13 150.992,767.151 151.085,734.089 												"/>
											</g>
										</g>
										<g>
											<g>
												<path fill="#BC923F" d="M382.411,855.068l-0.094,33.061c-5.969,3.469-15.725,3.498-21.785,0l0.094-33.061
													C366.686,858.567,376.443,858.537,382.411,855.068z"/>
											</g>
										</g>
										<g>
											<g>
												<path fill="#BC923F" d="M394.226,835.543c6.059,3.498,6.04,9.15,0.071,12.618l-11.886,6.907
													c-5.969,3.469-15.725,3.498-21.785,0L151.085,734.089c-6.059-3.498-6.092-9.18-0.123-12.648l11.886-6.907
													c5.969-3.469,15.777-3.468,21.837,0.03L394.226,835.543z"/>
											</g>
										</g>
									</g>
								</g>
								<g>
									<g enable-background="new    ">
										<g>
											<g>
												<path fill="#FFFFFF" d="M455.324,949.021"/>
											</g>
										</g>
										<g>
											<g>
												<polygon fill="#BC923F" points="317.828,1030.55 77.712,891.011 77.471,805.791 317.586,945.331 												"/>
											</g>
										</g>
										<g>
											<g>
												<g>
													<path fill="#A36D00" d="M172.531,656.063l218.766,120.763c-0.097,1.774-0.22,4.083-0.378,7.083
														c-0.735,13.853-2.63,49.618-4.247,68.037c-7.528-4.603-19.198-11.474-37.385-22.183
														c-28.008-16.492-64.351-37.748-97.787-57.303c-36.947-21.609-74.954-43.838-87.823-51.543
														C166.672,705.742,170.523,673.665,172.531,656.063 M165.813,643.089c-0.372,3.834-8.806,77.356-11.301,81.678
														c-0.738,0.424,238.083,138.955,238.434,140.7c2.496-4.495,6.379-89.439,6.752-93.269L165.813,643.089L165.813,643.089z
														 M392.946,865.468c0,0-0.005,0.01-0.008,0.015C392.945,865.48,392.948,865.475,392.946,865.468L392.946,865.468z"/>
												</g>
											</g>
										</g>
										<g>
											<g>
												<polygon fill="#FBD257" points="399.032,781.477 158.917,641.937 241.875,572.701 481.991,712.241 												"/>
											</g>
										</g>
									</g>
								</g>
								<g>
									<g>
										<path fill="#FBD257" d="M462.506,948.485c13.199,0,18.235-16.614,2.246-16.614
											C451.552,931.871,446.517,948.485,462.506,948.485L462.506,948.485z"/>
									</g>
								</g>
								<g>
									<path fill="#FBD257" d="M82.631,872.991c9.463,6.797,21.582,3.569,26.001-7.349c4.971-12.282-4.312-21.588-13.555-28.281
										c-8.85-6.409-27.473-18.204-35.1-3.92c-2.425,4.541-1.092,10.271,0.564,14.819c2.312,6.347,5.893,13.052,11.448,17.084
										c3.21,2.33,6.443,4.342,9.554,6.822C81.906,872.456,82.269,872.73,82.631,872.991z"/>
								</g>
								<g>
									<path fill="#FBD257" d="M296.814,955.313c-3.222-2.594-6.675-4.836-10.23-6.915c-3.534-1.614-7.189-3.09-10.815-4.599
										c-6.896-0.551-13.767,0.348-19.94,3.14c-4.978,2.252-1.01,17.956,0.293,21.171c5.164,12.722,50.012,40.117,55.879,17.659
										C315.137,973.765,305.448,962.267,296.814,955.313z"/>
								</g>
								<g>
									<path fill="#F2EDE0" d="M76.826,873.349c8.613,6.187,19.645,3.248,23.666-6.689c4.524-11.179-3.925-19.649-12.338-25.742
										c-8.055-5.834-25.006-16.57-31.949-3.568c-2.207,4.134-0.994,9.349,0.513,13.488c2.104,5.777,5.364,11.88,10.42,15.55
										c2.922,2.121,5.864,3.952,8.696,6.21C76.166,872.862,76.496,873.111,76.826,873.349z"/>
								</g>
								<g>
									<path fill="#F2EDE0" d="M289.842,957.311c-2.932-2.362-6.076-4.402-9.312-6.294c-3.217-1.469-6.544-2.813-9.844-4.186
										c-6.277-0.502-12.531,0.316-18.15,2.858c-4.531,2.049-0.919,16.344,0.267,19.27c4.7,11.58,45.522,36.515,50.862,16.073
										C306.519,974.106,297.701,963.64,289.842,957.311z"/>
								</g>
								<g>
									<path fill="#FFFFFF" stroke="#FFFFFF" stroke-width="0.75" stroke-miterlimit="10" d="M62.949,836.549
										c0,0,2.57,16.209,10.624,27.59"/>
									<path fill="#FFFFFF" stroke="#FFFFFF" stroke-width="0.75" stroke-miterlimit="10" d="M79.261,845.75
										c0,0,4.014,22.553,9.623,27.499"/>
									<path fill="#FFFFFF" stroke="#FFFFFF" stroke-width="0.75" stroke-miterlimit="10" d="M261.906,950.406
										c0,0,3.013,22.463,9.384,30.141"/>
									<path fill="#FFFFFF" stroke="#FFFFFF" stroke-width="0.75" stroke-miterlimit="10" d="M279.211,959.962
										c0,0,1.568,16.119,8.701,26.528"/>
								</g>
							</g>
							<g>
								<g>
									<path fill="#A36D00" d="M462.401,745.503l-0.633,65.373l-54.044,32.276c1.394-14.107,3.724-34.701,5.298-47.356
										c1.134-9.104,3.551-12.868,5.832-15.243L462.401,745.503 M469.11,730.359c-0.603,0-1.437,0.407-2.583,1.411l-53.128,42.761
										c-4.063,4.062-7.115,9.736-8.426,20.263c-2.246,18.047-5.881,50.899-6.451,60.604c-0.054,0.912,0.677,1.551,1.488,1.551
										c0.27,0,0.551-0.072,0.813-0.228l67.503-40.314c0.937-0.56,1.515-1.568,1.526-2.659l0.75-77.398
										C470.654,734.142,470.949,730.359,469.11,730.359L469.11,730.359z"/>
								</g>
							</g>
							<g>
								<g opacity="0.44">
									<g opacity="0.52">
										<g>
											<path fill="#B9C153" d="M463.862,758.241l-46.289,37.257c-3.539,3.539-6.199,8.482-7.341,17.654
												c-1.956,15.723-5.123,44.346-5.62,52.803c-0.061,1.06,1.094,1.697,2.006,1.153l58.812-35.124
												c0.817-0.488,1.321-1.366,1.33-2.317l0.654-67.435C467.472,759.678,467.907,754.702,463.862,758.241z"/>
										</g>
									</g>
								</g>
								<g opacity="0.33">
									<g>
										<path fill="#B9C153" d="M165.81,651.34c-0.392,4.045-7.082,68.904-9.714,73.464
											c-0.781,0.449,232.486,134.774,230.713,135.392c2.633-4.56,10.536-70.633,10.929-74.678l-9.235-5.343L165.81,651.34z"/>
									</g>
								</g>
							</g>
							<g>
								<path fill="#F2EDE0" d="M410.722,811.631c0,0-0.103-5.265,3.968-11.717c1.948-3.223,5.069-6.458,8.711-9.354
									c3.554-2.996,7.344-6.193,11.135-9.389c7.53-6.454,15.16-12.787,21.114-17.249c5.923-4.5,10.038-7.295,10.038-7.295
									l0.128,0.158c0,0-3.563,3.479-9.154,8.39c-5.56,4.949-13.284,11.164-21.106,17.258c-3.887,3.078-7.772,6.156-11.415,9.041
									c-3.706,2.794-6.805,5.747-8.856,8.829c-2.104,3.02-3.226,5.936-3.778,8.007c-0.561,2.085-0.58,3.323-0.58,3.323
									L410.722,811.631z"/>
							</g>
							<g>
								<path fill="#BC923F" d="M481.991,712.241l-82.959,69.236c-0.393,4.045-7.864,80.898-10.496,85.458
									c-2.367,4.099-71.106,78.489-70.95,78.397l0.242,85.219l44.06-30.637c0.434-26.001,8.492-56.702,49.349-71.967
									c19.079-7.128,42.05-8.031,45.509,18.889l25.826-29.698L481.991,712.241z M470.333,745.97l-0.654,67.435
									c-0.009,0.951-0.513,1.829-1.33,2.317l-58.812,35.124c-0.912,0.544-2.068-0.093-2.006-1.153
									c0.497-8.456,3.665-37.08,5.62-52.803c1.143-9.172,3.802-14.115,7.341-17.654l46.289-37.257
									C470.828,738.441,470.393,743.417,470.333,745.97z"/>
							</g>
							<g>
								<g>
									<path fill="#A36D00" d="M458.35,945.553c0.027-0.168,15.425-18.283,24.301-28.428c0.181,0.091-1.902-6.974-1.993-6.884
										c-8.721,5.482-22.842,17.325-32.586,20.762c-3.496,1.233-0.167,3.51,6.382-1.482L458.35,945.553z"/>
								</g>
							</g>
							<g>
								<g>
									<path fill="#FBD257" d="M420.395,934.283c11.044-1.128,24.534,2.784,32.452,10.991c7.131,7.391,29.435-2.032,21.562-10.192
										c-12.964-13.436-33.542-19.276-51.769-17.414c-4.987,0.51-12.355,3.478-13.008,9.284
										C408.988,932.692,415.923,934.74,420.395,934.283L420.395,934.283z"/>
								</g>
							</g>
							<g>
								<path fill="#FBD257" d="M413.287,918.025l63.144-40.046l-0.352-1.742l-66.64,41.806
									C410.732,918.124,412.019,918.124,413.287,918.025z"/>
							</g>
							<path fill="#BC923F" d="M462.625,921.816l-0.019,6.612l27.302-16.515c1.633-0.988,2.661-2.729,2.738-4.635l0.239-5.914
								L462.625,921.816z"/>
							<g>
								<g>
									<polygon fill="#BC923F" points="444.713,921.906 444.695,928.518 442.468,927.232 442.487,920.62 									"/>
								</g>
							</g>
							<g>
								<g>
									<path fill="#BC923F" d="M462.626,921.816l-0.019,6.612c-4.888,2.901-12.889,2.93-17.912,0.09l0.019-6.612
										C449.737,924.746,457.738,924.716,462.626,921.816z"/>
								</g>
							</g>
							<g>
								<path fill="#FBD257" d="M489.843,905.759l-27.217,16.057c-4.888,2.901-12.889,2.931-17.912,0.09l-2.227-1.286l43.116-25.476
									"/>
							</g>
							<g>
								<g>
									<path fill="#BC923F" d="M481.292,887.959l-0.463,7.866c-0.107,1.82-1.116,3.466-2.689,4.387l-37.088,21.708l0.019-6.612
										L481.292,887.959z"/>
								</g>
							</g>
							<g>
								<path fill="#BC923F" d="M420.423,915.308c5.749,3.319,14.989,3.289,20.649,0l-0.019,6.612
									c-5.66,3.289-13.2,3.266-23.164-4.161"/>
							</g>
							<g>
								<line fill="#FBD257" x1="419.594" y1="914.83" x2="476.552" y2="881.609"/>
							</g>
							<g>
								<path fill="#FBD257" d="M476.552,881.609c6.163,3.558,6.196,9.359,0.125,12.947l-35.605,20.752
									c-5.66,3.289-14.668,3.81-21.643-0.538"/>
							</g>
							<g>
								<path fill="#FBD257" d="M472.144,730.045c-2.079-0.737-4.131-0.091-5.207,1.493l-44.946,39.061
									c-6.31,5.497-13.508,15.93-14.375,25.765l-12.435,72.422c0.313,12.322,0.599,29.098,0.586,41.406
									c-0.001,0.492-0.002,0.977-0.003,1.455c0.588,0.814,1.237,1.578,2.002,2.229c0.103-8.53-0.018-22.356-0.599-44.943
									l12.432-72.303c0.792-8.94,7.49-19.087,13.697-24.493l45.108-39.239c0.727-1.026,1.845-1.386,3.08-0.935
									c2.334,0.828,4.555,4.27,4.253,10.151l-1.172,135.941l2.001,0.016l1.173-135.897
									C478.117,734.817,474.963,731.043,472.144,730.045z"/>
							</g>
							<g>
								<g enable-background="new    ">
									<g>
										<g>
											<path fill="#FBD257" d="M485.602,895.144l4.091,2.302c4.04,2.332,4.029,5.999,0.15,8.313"/>
										</g>
									</g>
								</g>
							</g>
							<g>
								<g enable-background="new    ">
									<g>
										<g>
											<line fill="#FBD257" x1="420.423" y1="915.308" x2="419.594" y2="914.83"/>
										</g>
										<g>
											<path fill="#FBD257" d="M476.552,881.609"/>
										</g>
									</g>
								</g>
							</g>
							<g>
								<g>
									<g enable-background="new    ">
										<g>
											<g>
												<path fill="#FBD257" d="M398.672,782.687c-1.148,0.376-2.46,0.343-3.769-0.34c-2.017-1.052-4.322-1.829-6.674-2.337
													l25.248,15.514c0.243,0.149,0.594,0.134,0.991-0.078c0.765-0.409,1.791,0.658,1.422-2.179L398.672,782.687z"/>
											</g>
										</g>
									</g>
								</g>
								<g>
									<g enable-background="new    ">
										<g>
											<g>
												<path fill="#A36D00" d="M427.86,866.771l-5.578,3.241c1.641-0.953,2.662-2.974,2.67-5.838l5.578-3.241
													C430.522,863.796,429.501,865.817,427.86,866.771z"/>
											</g>
										</g>
										<g>
											<g>
												<path fill="#A36D00" d="M406.799,803.761l5.578-3.241c1.662-0.966,3.96-0.836,6.485,0.621l-5.578,3.241
													C410.759,802.924,408.461,802.795,406.799,803.761z"/>
											</g>
										</g>
										<g>
											<g>
												<polygon fill="#A36D00" points="425.073,821.691 430.651,818.449 430.53,860.932 424.953,864.173 												"/>
											</g>
										</g>
										<g>
											<g>
												<polygon fill="#A36D00" points="413.284,804.382 418.862,801.14 421.555,802.695 415.977,805.937 												"/>
											</g>
										</g>
										<g>
											<g>
												<path fill="#A36D00" d="M415.977,805.937l5.578-3.241c5.017,2.897,9.112,9.989,9.096,15.754l-5.578,3.241
													C425.089,815.925,420.995,808.833,415.977,805.937z"/>
											</g>
										</g>
										<g>
											<g>
												<path fill="#FBD257" d="M415.977,805.937c5.017,2.897,9.112,9.989,9.096,15.754l-0.12,42.483
													c-0.016,5.765-4.138,8.114-9.155,5.217l-2.693-1.555c-5.017-2.897-9.112-9.989-9.096-15.754l0.12-42.483
													c0.016-5.765,4.138-8.114,9.155-5.217L415.977,805.937z"/>
											</g>
										</g>
									</g>
								</g>
								<g>
									<g enable-background="new    ">
										<g>
											<g>
												<path fill="#FBD257" d="M416.029,793.902l-0.091,32.256c-0.001,0.257-0.186,0.521-0.549,0.719
													c-0.658,0.365-1.661,0.379-2.256,0.036c-0.009-0.005-0.017-0.01-0.026-0.015c-0.273-0.166-0.406-0.381-0.406-0.601
													l0.091-32.256c-0.001,0.22,0.133,0.435,0.406,0.601c0.008,0.005,0.017,0.01,0.026,0.015
													c0.595,0.343,1.598,0.33,2.256-0.035C415.843,794.423,416.029,794.16,416.029,793.902z"/>
											</g>
										</g>
										<g>
											<g>
												<path fill="#FBD257" d="M415.599,794.1c0.009,0.005,0.017,0.01,0.026,0.015c0.591,0.359,0.529,0.951-0.144,1.319
													c-0.658,0.365-1.661,0.379-2.256,0.036c-0.009-0.005-0.017-0.01-0.026-0.015c-0.591-0.359-0.529-0.951,0.139-1.321
													C414.001,793.771,415.004,793.757,415.599,794.1z"/>
											</g>
										</g>
									</g>
								</g>
							</g>
							<g>
								<g>
									<g>
										<g>
											<line fill="#FFFFFF" x1="192.804" y1="670.277" x2="239.073" y2="772.069"/>
										</g>
										<g>
											<path fill="#FFFFFF" d="M192.897,670.235c0,0,11.89,25.301,23.78,50.602c5.995,12.628,11.847,25.321,15.899,34.993
												c4.097,9.652,6.589,16.196,6.589,16.196l-0.184,0.084c0,0-3.292-6.18-7.87-15.614
												c-4.623-9.413-10.338-22.169-15.911-34.988c-11.244-25.595-22.488-51.189-22.488-51.189L192.897,670.235z"/>
										</g>
									</g>
									<g>
										<g>
											<line fill="#FFFFFF" x1="237.338" y1="699.195" x2="277.245" y2="791.154"/>
										</g>
										<g>
											<path fill="#FFFFFF" d="M237.432,699.155c0,0,10.302,22.849,20.604,45.697c5.201,11.403,10.258,22.867,13.712,31.613
												c3.499,8.726,5.591,14.649,5.591,14.649l-0.186,0.081c0,0-2.897-5.572-6.881-14.089
												c-4.029-8.496-8.947-20.021-13.724-31.609c-9.651-23.131-19.302-46.262-19.302-46.262L237.432,699.155z"/>
										</g>
									</g>
									<g>
										<g>
											<line fill="#FFFFFF" x1="292.282" y1="744.307" x2="329.297" y2="818.337"/>
										</g>
										<g>
											<path fill="#FFFFFF" d="M292.373,744.262c0,0,9.571,18.349,19.142,36.698c4.834,9.15,9.529,18.37,12.718,25.451
												c3.234,7.058,5.155,11.882,5.155,11.882l-0.181,0.091c0,0-2.707-4.43-6.413-11.253c-3.751-6.8-8.31-16.088-12.729-25.445
												c-8.936-18.666-17.873-37.332-17.873-37.332L292.373,744.262z"/>
										</g>
									</g>
									<g>
										<g>
											<line fill="#FFFFFF" x1="430.51" y1="829.326" x2="438.607" y2="792.889"/>
										</g>
										<g>
											<path fill="#FFFFFF" d="M430.411,829.304c0,0,1.678-9.186,3.356-18.372c0.786-4.605,1.725-9.176,2.789-12.524
												c1.017-3.359,1.952-5.541,1.952-5.541l0.198,0.044c0,0-0.076,2.373-0.578,5.846c-0.453,3.484-1.539,8.022-2.777,12.526
												c-2.371,9.032-4.741,18.064-4.741,18.064L430.411,829.304z"/>
										</g>
									</g>
									<g>
										<g>
											<line fill="#FFFFFF" x1="448.439" y1="818.916" x2="460.007" y2="773.225"/>
										</g>
										<g>
											<path fill="#FFFFFF" d="M448.341,818.891c0,0,2.548-11.51,5.096-23.019c1.221-5.768,2.593-11.498,3.982-15.705
												c1.341-4.219,2.49-6.966,2.49-6.966l0.196,0.05c0,0-0.297,2.964-1.125,7.312c-0.781,4.36-2.3,10.053-3.971,15.708
												c-3.236,11.336-6.472,22.671-6.472,22.671L448.341,818.891z"/>
										</g>
									</g>
								</g>
							</g>
							<g>
								<g>
									<path fill="#FBD257" d="M158.917,641.937c-0.393,4.045-7.863,80.898-10.496,85.458
										c-2.367,4.099-71.106,78.489-70.95,78.397l240.115,139.54c-0.156,0.092,68.583-74.298,70.95-78.397
										c2.632-4.56,10.103-81.413,10.496-85.457L158.917,641.937z M383.481,859.603c1.773-0.618-231.494-134.943-230.713-135.392
										c2.632-4.56,9.322-69.419,9.714-73.464L394.41,784.925C394.017,788.97,386.114,855.043,383.481,859.603z"/>
								</g>
							</g>
							<g>
								<g>
									<path fill="#A36D00" d="M467.654,834.128c0.182-0.182,0.365-0.365,0.547-0.547c1.75-1.75,1.311-3.46-1.097-4.092
										c-2.478-0.651-6.479,0.396-8.311,2.227c-0.182,0.182-0.365,0.365-0.547,0.547c-1.75,1.75-1.311,3.46,1.097,4.092
										C461.821,837.006,465.822,835.959,467.654,834.128L467.654,834.128z"/>
								</g>
							</g>
							<g>
								<path fill="#FBD257" d="M316.813,1030.563c-0.495-38.368-0.915-84.388-0.099-85.754l1.743,1.046l-0.871-0.523l0.958,0.317
									c-0.555,2.471-0.127,52.12,0.297,84.891L316.813,1030.563z"/>
							</g>
							<g>
								<path fill="#FBD257" d="M416.356,914.378"/>
							</g>
							<g>
								<path fill="#F2EDE0" d="M50.003,891.344c-0.001,0.136-0.001,0.272-0.003,0.406c-0.037,4.637,2.42,8.9,6.441,11.21
									c38.059,21.865,193.592,109.265,250.574,141.999c7.797,4.479,17.559-0.921,17.915-9.906l0.014-0.363
									c0.178-4.428-2.095-8.568-5.929-10.79c-35.328-20.472-188.107-107.976-249.686-143.644
									C60.774,875.301,50.049,881.456,50.003,891.344z"/>
							</g>
							<g>
								<g>
									<path fill="#B9C153" d="M542.979,651.061c177.145-101.226,345.798-196.863,522.91-298.148
										c26.146-14.952,52.549-29.537,78.45-44.911c13.627-8.089-6.219-14.785-15.242-9.43
										C953.309,402.916,773.961,501.655,596.476,603.081c-25.744,14.712-54.116,25.566-77.234,44.135
										c-0.298,0.239-0.298,16.463-0.298,17.064L542.979,651.061z"/>
								</g>
							</g>
							<g>
								<g>
									<path fill="#B9C153" d="M544.181,710.549c177.145-101.226,345.617-197.13,522.729-298.416
										c26.146-14.952,52.549-29.537,78.45-44.911c13.627-8.089-6.219-14.785-15.242-9.43
										C954.33,462.136,774.982,560.875,597.497,662.302c-25.745,14.712-52.715,29.019-77.234,44.135
										c-3.305,2.038-1.319,14.928-0.718,15.529L544.181,710.549z"/>
								</g>
							</g>
							<g>
								<g>
									<path fill="#B9C153" d="M534.567,768.835c177.145-101.226,350.126-200.28,527.238-301.566
										c26.146-14.952,52.548-29.537,78.45-44.911c13.627-8.089-6.219-14.785-15.242-9.43
										C949.225,517.272,769.877,616.01,592.391,717.437c-25.744,14.712-51.489,29.424-77.234,44.135
										c0.782,1.253-5.272,21.452,3.786,16.275L534.567,768.835z"/>
								</g>
							</g>
							<g>
								<g>
									<path fill="#B9C153" d="M538.172,820.511c177.145-101.226,348.563-198.862,525.675-300.148
										c26.146-14.952,52.549-29.537,78.45-44.911c13.627-8.089-6.219-14.785-15.242-9.43
										C951.267,570.366,771.919,669.104,594.433,770.531c-25.745,14.712-52.055,31.953-77.234,44.135
										c-1.201,0.581,1.143,17.261-0.058,17.261L538.172,820.511z"/>
								</g>
							</g>
							<g>
								<g>
									<path fill="#B9C153" d="M537.571,868.582c177.145-101.226,349.164-198.944,526.275-300.23
										c26.146-14.952,52.549-29.537,78.45-44.911c13.627-8.089-6.219-14.785-15.242-9.43
										C951.267,618.355,771.919,717.093,594.433,818.52c-25.745,14.712-53.858,31.434-77.234,44.135
										c-0.737,0.4-0.058,16.141-0.659,16.141L537.571,868.582z"/>
								</g>
							</g>
							<g>
								<g>
									<path fill="#B9C153" d="M516.618,608.14c-1.137,100.819-2.581,201.643-3.106,302.467c-0.009,1.697,4.165,0.336,4.74,0.005
										c182.922-105.336,365.844-210.672,548.766-316.008c26.419-15.213,52.838-30.427,79.257-45.64
										c3.42-1.97-1.776-2.637-3.604-1.585c-112.804,64.959-225.609,129.917-338.413,194.876
										c-72.481,41.739-144.963,83.477-217.444,125.216c-20.108,11.579-40.11,23.374-60.337,34.745
										c-1.13,0.635-10.125,7.04-11.166,6.43c4.892,2.866,4.337-33.263,4.377-37.702c0.805-88.127,1.812-176.253,2.806-264.378
										C522.513,604.911,516.642,605.947,516.618,608.14L516.618,608.14z"/>
								</g>
							</g>
							<g>
								<path fill="#FFFFFF" d="M223.284,965.807c0.014-0.132,0.027-0.277,0.039-0.431c0.016-0.2,0.03-0.414,0.042-0.647
									c0.01-0.179,0.019-0.362,0.026-0.559c0.01-0.259,0.017-0.536,0.024-0.823c0.005-0.215,0.01-0.426,0.013-0.655
									c0.005-0.314,0.007-0.648,0.008-0.985c0.001-0.232,0.003-0.457,0.003-0.699c0-0.392-0.003-0.803-0.007-1.216
									c-0.002-0.211-0.002-0.414-0.004-0.63c-0.007-0.591-0.016-1.197-0.027-1.81c-0.002-0.114-0.004-0.228-0.007-0.343
									c-0.011-0.603-0.025-1.21-0.04-1.818c-0.006-0.227-0.012-0.453-0.018-0.679c-0.012-0.434-0.023-0.868-0.036-1.297
									c-0.009-0.287-0.017-0.566-0.026-0.848c-0.012-0.387-0.024-0.774-0.037-1.149c-0.009-0.255-0.017-0.502-0.026-0.75
									c-0.013-0.361-0.025-0.718-0.038-1.061c-0.01-0.261-0.019-0.516-0.028-0.765c-0.012-0.31-0.023-0.612-0.035-0.899
									c-0.009-0.222-0.017-0.442-0.026-0.65c-0.012-0.293-0.023-0.57-0.033-0.83c-0.007-0.172-0.015-0.352-0.022-0.508
									c-0.008-0.201-0.016-0.375-0.023-0.547c-0.007-0.174-0.016-0.366-0.022-0.508c-0.002-0.04-0.003-0.065-0.004-0.102
									c-0.02-0.442-0.032-0.712-0.032-0.719l0.001-0.002l-86.293-50.148l-0.002,0.002c0,0,0.004,0.101,0.009,0.214
									c0.007,0.16,0.019,0.427,0.033,0.745c0.001,0.023,0.002,0.05,0.003,0.073c0.011,0.248,0.023,0.524,0.036,0.849
									c0.007,0.179,0.016,0.372,0.024,0.572c0.01,0.243,0.02,0.49,0.031,0.761c0.008,0.186,0.015,0.37,0.023,0.568
									c0.013,0.341,0.027,0.692,0.041,1.064c0.008,0.217,0.016,0.432,0.025,0.658c0.013,0.353,0.025,0.713,0.038,1.085
									c0.009,0.25,0.017,0.493,0.026,0.75c0.013,0.397,0.026,0.802,0.039,1.212c0.008,0.25,0.016,0.493,0.023,0.746
									c0.014,0.469,0.026,0.942,0.039,1.418c0.005,0.199,0.011,0.395,0.016,0.595c0.015,0.609,0.028,1.216,0.04,1.819
									c0.002,0.108,0.004,0.215,0.006,0.323c0.012,0.627,0.021,1.246,0.028,1.849c0.002,0.19,0.002,0.368,0.004,0.555
									c0.004,0.434,0.007,0.863,0.007,1.274c0,0.234-0.002,0.451-0.003,0.677c-0.002,0.349-0.004,0.693-0.008,1.017
									c-0.004,0.219-0.008,0.419-0.013,0.625c-0.007,0.297-0.014,0.582-0.025,0.849c-0.007,0.191-0.016,0.368-0.025,0.542
									c-0.013,0.238-0.027,0.457-0.043,0.661c-0.012,0.15-0.024,0.292-0.038,0.422c-0.008,0.072-0.013,0.169-0.022,0.234
									l86.283,50.142C223.262,965.955,223.274,965.893,223.284,965.807z"/>
							</g>
						</g>
					</g>
					
						<line fill="none" stroke="#FFFFFF" stroke-width="0.5" stroke-miterlimit="10" x1="241.517" y1="573.01" x2="159.372" y2="641.618"/>
					<path fill="none" stroke="#FFFFFF" stroke-width="0.5" stroke-miterlimit="10" d="M148.144,726.878l10.968-84.609
						c0.011-0.084,0.103-0.129,0.176-0.087L398.911,781.53"/>
					
						<line fill="none" stroke="#FFFFFF" stroke-width="0.5" stroke-miterlimit="10" x1="148.472" y1="726.151" x2="77.128" y2="805.127"/>
				</g>
				
					<path fill="none" stroke="#FFFFFF" stroke-width="0.25" stroke-linecap="round" stroke-linejoin="round" stroke-miterlimit="10" d="
					M405.952,852.602l-0.308-39.579c0,0,0.249-9.435,5.473-8.462"/>
				<g>
					<g>
						<path fill="#FBD257" d="M366,1006.58c-4.932-34.193,19.288-65.343,52.977-71.934c14.782-2.892,9.324-12.446-3.606-11.523
							c-44.631,3.188-79.429,44.328-72.876,89.755C343.995,1023.284,367.574,1017.497,366,1006.58L366,1006.58z"/>
					</g>
				</g>
				<g>
					<path fill="#FFFFFF" d="M356.592,1009.206c-0.054-15.522,0.385-29.873,8.399-43.725c8.972-15.507,27.379-34.129,45.922-36.075
						c2.729-0.286,4.214-3.709,0.602-3.33c-17.592,1.847-31.849,14.363-42.976,27.406c-14.389,16.866-17.3,34.477-17.224,56.265
						C351.324,1012.194,356.599,1011.211,356.592,1009.206L356.592,1009.206z"/>
				</g>
				<g>
					<path fill="#FBD257" d="M403.861,922.062c-1.371,0-2.718-0.328-3.918-1.168c-5.194-3.638-4.146-10.406-4.108-10.699
						l2.064-0.344c-0.504,0.067-0.389,6.205,3.519,8.942c3.146,2.194,9.308-1.324,11.271-2.866l1.032,1.72
						C413.448,917.86,408.592,922.062,403.861,922.062z"/>
				</g>
			</g>
			
				<line fill="none" stroke="#BC923F" stroke-width="0.5" stroke-miterlimit="10" x1="151.421" y1="728.452" x2="389.54" y2="867.063"/>
			<g>
				<path fill="#FFFFFF" d="M55.147,886.474c46.764,24.056,92.005,51.466,137.488,77.822c26.432,15.316,52.832,30.691,79.083,46.317
					c10.985,6.539,31.699,14.585,39.58,24.462c3.886,4.87,18.991-0.928,14.511-6.541c-7.532-9.439-24.39-15.881-34.458-21.907
					c-26.436-15.823-53.061-31.335-79.708-46.799c-47.684-27.672-95.121-56.464-144.167-81.695
					C62.192,875.415,48.002,882.799,55.147,886.474L55.147,886.474z"/>
			</g>
		</g>
	</g>
	<polyline fill="none" stroke="#FFFFFF" stroke-width="0.75" stroke-miterlimit="10" points="516.321,618.328 231.488,453.991 
		860.25,93.207 	"/>
</g>
</svg>
