<?xml version="1.0"?>
<svg xmlns="http://www.w3.org/2000/svg" xmlns:xlink="http://www.w3.org/1999/xlink" version="1.1" id="Capa_1" x="0px" y="0px" viewBox="0 0 468.293 468.293" style="enable-background:new 0 0 468.293 468.293;" xml:space="preserve" width="512px" height="512px" class=""><g transform="matrix(0.904382 0 0 0.904382 22.3886 22.3886)"><path style="fill:#D5D6DB" d="M389.763,19.662l-14.957,286.025H93.726L78.769,19.662C78.21,8.973,86.727,0,97.431,0h273.671  C381.805,0,390.322,8.973,389.763,19.662z" data-original="#D5D6DB" class=""/><path style="fill:#3E8ACD" d="M354.597,131.405H113.696c0,0-18.563-76.814,0-92.355c41.38-34.642,196.945-34.104,240.901,0  C373.698,53.87,354.597,131.405,354.597,131.405z" data-original="#D15241" class="" data-old_color="#D15241"/><g>
	<path style="fill:#2F4859" d="M106.323,263.03l-30.046-30.227c-1.131-1.138-1.126-2.977,0.012-4.108h0   c1.138-1.132,2.977-1.126,4.109,0.012l30.046,30.227c1.131,1.138,1.126,2.977-0.012,4.108h0   C109.294,264.174,107.454,264.168,106.323,263.03z" data-original="#2F4859" class=""/>
	<path style="fill:#2F4859" d="M364.901,263.042L364.901,263.042c-1.137-1.131-1.143-2.97-0.012-4.108l30.046-30.227   c1.131-1.138,2.971-1.143,4.109-0.012l0,0c1.137,1.131,1.143,2.97,0.012,4.108L369.01,263.03   C367.878,264.168,366.039,264.174,364.901,263.042z" data-original="#2F4859" class=""/>
</g><path style="fill:#287DC7" d="M368.629,146.801v100.385l-115.016,73.115h-40.44L99.664,247.186V146.801  c0-11.069,8.977-20.046,20.046-20.046h228.874C359.652,126.755,368.629,135.732,368.629,146.801z" data-original="#E56353" class="" data-old_color="#E56353"/><path style="fill:#3E8ACD" d="M384.482,363.879c-9.907,42.91-95.466,26.207-95.466,20.685H179.257  c0,5.371-85.559,22.225-95.436-20.685c-0.233-38.611,2.15-70.742,15.833-75.158v-65.193H368.62v65.193  C382.332,293.137,384.714,325.268,384.482,363.879z" data-original="#D15241" class="" data-old_color="#D15241"/><g>
	<path style="fill:#2F4859" d="M358.245,425.789v23.997c0,10.226-8.309,18.506-18.536,18.506s-18.506-8.28-18.506-18.506v-23.997   H358.245z" data-original="#2F4859" class=""/>
	<path style="fill:#2F4859" d="M147.089,425.245v23.997c0,10.226-8.309,18.506-18.536,18.506c-10.226,0-18.506-8.28-18.506-18.506   v-23.997H147.089z" data-original="#2F4859" class=""/>
</g><path style="fill:#64798A" d="M384.492,363.879v52.294c0,13.626-11.069,24.694-24.694,24.694H108.496  c-13.625,0-24.694-11.069-24.694-24.694v-52.294h0.319c1.918,11.737,12.115,20.685,24.375,20.685h251.302  c12.26,0,22.457-8.948,24.375-20.685H384.492z" data-original="#64798A" class=""/><path style="fill:#3A556A" d="M297.354,393.992c-1.166-1.847-3.169-2.949-5.354-2.949H173.212c-2.185,0-4.185,1.102-5.351,2.946  c-1.169,1.847-1.305,4.127-0.372,6.1l10.478,22.081c1.044,2.199,3.291,3.619,5.722,3.619h97.836c2.431,0,4.678-1.42,5.723-3.619  l10.475-22.081C298.659,398.117,298.52,395.838,297.354,393.992z M172.757,404.407h119.701l-3.791,7.989H176.548L172.757,404.407z   M284.621,420.925c-0.565,1.19-1.779,1.959-3.095,1.959H183.69c-1.316,0-2.531-0.769-3.095-1.959l-2.668-5.623h109.363  L284.621,420.925z M295.098,398.844l-1.261,2.658H171.378l-1.261-2.658c-0.516-1.084-0.443-2.287,0.199-3.301  c0.641-1.013,1.697-1.594,2.897-1.594H292c1.2,0,2.256,0.582,2.897,1.597C295.538,396.558,295.612,397.76,295.098,398.844z" data-original="#3A556A" class=""/><g>
	<path style="fill:#D5D6DB" d="M327.345,415.677c11.294,10.289,28.501,3.786,38.434-14.523   C354.485,390.866,337.278,397.368,327.345,415.677z" data-original="#D5D6DB" class=""/>
	<path style="fill:#D5D6DB" d="M139.961,415.762c-0.711-15.261-17.476-22.831-37.446-16.907   C103.225,414.115,119.991,421.685,139.961,415.762z" data-original="#D5D6DB" class=""/>
	<path style="fill:#D5D6DB" d="M365.626,365.854c-6.479,7.292-32.684,5.985-43.956,5.055c-2.934-0.232-5.2-2.702-5.2-5.665   c0-1.191,0.377-2.324,1.075-3.312c5.142-7.147,27.745-37.187,40.063-30.97C366.701,335.524,372.453,358.155,365.626,365.854z" data-original="#D5D6DB" class=""/>
</g><path style="fill:#EBF0F3" d="M362.285,350.892c0,6.856-5.549,12.405-12.434,12.405c-6.857,0-12.405-5.549-12.405-12.405  c0-6.885,5.549-12.434,12.405-12.434C356.736,338.458,362.285,344.007,362.285,350.892z" data-original="#EBF0F3" class=""/><path style="fill:#F7BE56" d="M336.69,362.891c0,3.37-2.731,6.13-6.13,6.13c-3.399,0-6.159-2.76-6.159-6.13  c0-3.399,2.76-6.159,6.159-6.159C333.959,356.732,336.69,359.492,336.69,362.891z" data-original="#F7BE56"/><path style="fill:#D5D6DB" d="M102.666,365.854c6.479,7.292,32.684,5.985,43.956,5.055c2.934-0.232,5.2-2.702,5.2-5.665  c0-1.191-0.377-2.324-1.075-3.312c-5.142-7.147-27.745-37.187-40.063-30.97C101.592,335.524,95.839,358.155,102.666,365.854z" data-original="#D5D6DB" class=""/><path style="fill:#EBF0F3" d="M106.008,350.892c0,6.856,5.549,12.405,12.434,12.405c6.857,0,12.405-5.549,12.405-12.405  c0-6.885-5.549-12.434-12.405-12.434C111.556,338.458,106.008,344.007,106.008,350.892z" data-original="#EBF0F3" class=""/><path style="fill:#F7BE56" d="M131.602,362.891c0,3.37,2.731,6.13,6.13,6.13c3.399,0,6.159-2.76,6.159-6.13  c0-3.399-2.76-6.159-6.159-6.159C134.334,356.732,131.602,359.492,131.602,362.891z" data-original="#F7BE56"/><path style="fill:#2F4859" d="M300.273,297.853v-0.019h-0.012c-0.518-0.873-1.104-1.712-1.787-2.485  c-3.109-3.528-7.589-5.552-12.296-5.552H182.637c-4.69,0-9.161,2.021-12.265,5.547c-0.683,0.775-1.27,1.615-1.789,2.491h-0.013v0.02  c-1.836,3.11-2.624,6.762-2.162,10.402l6.886,53.514c1.047,8.143,8.023,14.282,16.228,14.282h89.801  c8.202,0,15.179-6.14,16.228-14.282l6.886-53.514v-0.003C302.9,304.614,302.11,300.962,300.273,297.853z M172.551,297.263  c2.553-2.9,6.23-4.562,10.086-4.562h103.541c3.873,0,7.558,1.665,10.117,4.568c0.154,0.175,0.255,0.383,0.399,0.565H172.148  C172.293,297.65,172.395,297.44,172.551,297.263z M174.506,348.408h119.835l-0.876,6.812H175.382L174.506,348.408z M174.132,345.503  l-0.871-6.774h122.326l-0.871,6.774H174.132z M172.886,335.824l-0.859-6.677H296.82l-0.859,6.677H172.886z M171.653,326.242  l-0.855-6.64h127.249l-0.854,6.64H171.653z M170.425,316.696l-0.842-6.544h129.68l-0.841,6.544H170.425z M279.324,373.146h-89.801  c-4.266,0-8.12-2.026-10.602-5.205h111.002C287.442,371.12,283.588,373.146,279.324,373.146z M291.433,365.443v-0.407H177.411v0.403  c-0.599-1.256-1.049-2.6-1.234-4.042l-0.421-3.273h117.335l-0.421,3.273C292.484,362.841,292.033,364.187,291.433,365.443z   M299.555,307.884l-0.006,0.044v-0.681H169.294v0.662l-0.003-0.022c-0.314-2.468,0.132-4.92,1.119-7.148h128.023  C299.422,302.966,299.869,305.417,299.555,307.884z" data-original="#2F4859" class=""/><g>
	<path style="fill:#64798A" d="M411.637,196.117v38.495c0,3.811-3.089,6.9-6.9,6.9h-14.904c-3.811,0-6.9-3.089-6.9-6.9v-38.495   c0-3.811,3.089-6.9,6.9-6.9h14.904C408.548,189.217,411.637,192.306,411.637,196.117z" data-original="#64798A" class=""/>
	<path style="fill:#64798A" d="M56.656,196.117v38.495c0,3.811,3.089,6.9,6.9,6.9h14.904c3.811,0,6.9-3.089,6.9-6.9v-38.495   c0-3.811-3.089-6.9-6.9-6.9H63.555C59.745,189.217,56.656,192.306,56.656,196.117z" data-original="#64798A" class=""/>
</g><path style="fill:#5BA6DB" d="M368.629,165.898v61.165c0,5.858-4.635,10.858-10.493,10.875c-0.037,0-0.074,0-0.111,0H110.267  c-0.037,0-0.074,0-0.111,0c-5.858-0.017-10.493-5.017-10.493-10.875v-61.165c0-5.858,4.635-10.858,10.493-10.875  c0.037,0,0.074,0,0.111,0h247.758c0.037,0,0.074,0,0.111,0C363.994,155.039,368.629,160.039,368.629,165.898z" data-original="#27A2DB" class="active-path" data-old_color="#27A2DB"/></g> </svg>
